<?xml version="1.0" encoding="UTF-8" standalone="no"?>
<!DOCTYPE svg PUBLIC "-//W3C//DTD SVG 1.1//EN" "http://www.w3.org/Graphics/SVG/1.1/DTD/svg11.dtd">
<svg xmlns="http://www.w3.org/2000/svg" version="1.1" viewBox="0.00 0.00 1432.00 1384.00">
<g stroke-width="2.00" fill="none" stroke-linecap="butt">
<path stroke="#005a10" vector-effect="non-scaling-stroke" d="
  M 929.22 593.82
  Q 929.08 594.47 929.21 595.13
  Q 929.31 595.67 929.03 596.14
  Q 804.08 807.24 713.09 961.32
  Q 712.61 962.13 711.96 962.78
  A 0.80 0.80 0.0 0 1 710.68 962.55
  Q 709.24 959.49 707.57 956.64
  Q 538.03 667.19 373.98 387.70
  Q 369.88 380.71 365.88 373.84
  C 365.07 372.44 364.16 371.92 362.54 372.06
  Q 348.25 373.24 335.04 373.21
  C 332.77 373.20 330.58 373.86 328.31 373.90
  Q 321.51 374.02 314.69 374.17
  C 309.03 374.29 303.46 375.16 297.76 375.06
  A 0.37 0.37 0.0 0 0 297.43 375.60
  L 704.07 1113.40
  A 0.63 0.62 -44.1 0 0 705.15 1113.41
  L 1051.24 527.68
  Q 1052.08 526.26 1050.43 526.27
  C 1035.20 526.38 1018.63 525.87 1002.74 526.41
  Q 991.25 526.81 982.76 526.83
  Q 885.15 527.11 784.99 527.00
  Q 777.71 526.99 765.00 527.19
  Q 748.73 527.44 731.53 527.20
  A 0.61 0.61 0.0 0 0 730.98 528.11
  Q 738.66 542.20 746.51 556.20
  Q 755.17 571.61 764.13 587.59
  Q 766.63 592.05 768.74 596.44
  Q 769.61 598.26 771.64 598.20
  Q 783.47 597.87 796.47 597.72
  C 798.69 597.70 800.71 597.15 802.95 597.11
  Q 815.57 596.89 828.79 596.67
  C 829.84 596.65 830.91 596.21 831.75 596.19
  Q 845.84 595.83 857.35 595.78
  Q 858.72 595.78 860.60 595.42
  Q 862.22 595.11 863.88 595.08
  Q 876.90 594.86 889.24 594.70
  C 890.95 594.67 892.61 594.13 894.39 594.10
  Q 906.46 593.88 917.60 593.73
  C 921.30 593.68 924.86 592.89 928.62 593.05
  Q 929.38 593.09 929.22 593.82"
/>
<path stroke="#010c76" vector-effect="non-scaling-stroke" d="
  M 710.61 674.13
  Q 710.54 673.52 710.76 672.98
  A 1.41 1.39 -43.0 0 0 710.80 672.01
  Q 710.28 670.47 709.66 669.33
  Q 649.77 559.61 589.85 449.90
  Q 589.02 448.36 588.80 446.69
  Q 588.71 446.00 589.40 445.94
  C 590.83 445.80 591.50 445.00 593.10 445.00
  Q 651.60 444.95 711.74 444.73
  Q 715.42 444.72 719.01 444.66
  Q 791.88 443.60 863.51 444.00
  Q 873.66 444.06 883.52 444.00
  Q 927.20 443.73 972.49 443.78
  Q 976.41 443.78 981.00 443.70
  Q 1039.33 442.67 1098.46 443.09
  A 2.40 2.38 14.3 0 0 1100.58 441.84
  L 1136.03 375.92
  A 0.60 0.60 0.0 0 0 1135.51 375.03
  Q 1084.68 374.87 1035.25 375.10
  Q 1006.02 375.23 974.75 375.29
  Q 970.84 375.30 967.75 375.34
  Q 940.13 375.74 915.50 375.83
  Q 810.39 376.18 712.01 376.13
  C 707.68 376.13 703.35 376.41 699.00 376.46
  Q 673.11 376.79 648.25 376.86
  Q 565.50 377.10 475.65 377.12
  A 0.55 0.55 0.0 0 0 475.17 377.94
  Q 591.88 586.52 708.67 795.63
  Q 711.85 801.32 714.65 805.81
  Q 715.89 807.80 717.01 805.74
  L 789.80 672.78
  A 0.47 0.47 0.0 0 0 789.41 672.09
  Q 780.33 671.66 771.10 672.39
  Q 764.61 672.91 760.89 672.97
  C 756.12 673.05 751.06 672.81 746.34 673.48
  C 740.90 674.26 735.27 674.01 729.70 674.11
  C 723.71 674.22 717.67 675.42 711.40 674.89
  Q 710.70 674.83 710.61 674.13"
/>
</g>
<path fill="#000000" d="
  M 925.62 596.06
  Q 916.04 595.71 906.77 596.44
  C 896.17 597.26 885.56 596.60 875.09 597.49
  Q 866.32 598.23 856.57 598.02
  C 851.80 597.92 846.93 598.36 842.10 598.71
  C 835.08 599.23 827.89 599.00 821.00 599.09
  C 816.95 599.14 813.03 599.75 809.05 599.87
  C 800.24 600.13 791.56 599.83 782.75 600.56
  Q 776.18 601.10 769.36 601.02
  Q 768.72 601.01 768.40 600.45
  L 727.32 526.89
  A 1.63 1.38 -70.0 0 1 727.15 526.43
  Q 726.85 525.05 727.94 525.05
  C 843.33 524.34 941.13 523.81 1049.75 524.00
  Q 1051.16 524.00 1052.21 524.59
  Q 1052.69 524.86 1053.08 524.47
  Q 1053.96 523.55 1054.76 524.42
  A 1.54 1.53 -51.1 0 1 1054.95 526.25
  L 705.27 1118.03
  A 0.86 0.86 0.0 0 1 703.77 1118.01
  L 293.25 373.20
  A 0.96 0.95 78.2 0 1 294.17 371.79
  C 295.42 371.89 295.99 372.55 297.32 372.41
  C 304.91 371.65 312.53 372.35 320.17 371.51
  Q 326.62 370.80 334.80 370.99
  C 341.04 371.13 347.16 369.82 353.42 370.00
  Q 360.82 370.21 368.04 369.41
  A 1.25 1.25 0.0 0 1 369.12 371.46
  L 368.51 372.17
  Q 368.09 372.65 368.41 373.20
  L 711.16 957.75
  Q 711.36 958.08 711.69 957.89
  Q 712.39 957.49 712.76 956.86
  Q 818.45 778.10 925.87 596.54
  Q 926.14 596.08 925.62 596.06
  Z
  M 929.22 593.82
  Q 929.08 594.47 929.21 595.13
  Q 929.31 595.67 929.03 596.14
  Q 804.08 807.24 713.09 961.32
  Q 712.61 962.13 711.96 962.78
  A 0.80 0.80 0.0 0 1 710.68 962.55
  Q 709.24 959.49 707.57 956.64
  Q 538.03 667.19 373.98 387.70
  Q 369.88 380.71 365.88 373.84
  C 365.07 372.44 364.16 371.92 362.54 372.06
  Q 348.25 373.24 335.04 373.21
  C 332.77 373.20 330.58 373.86 328.31 373.90
  Q 321.51 374.02 314.69 374.17
  C 309.03 374.29 303.46 375.16 297.76 375.06
  A 0.37 0.37 0.0 0 0 297.43 375.60
  L 704.07 1113.40
  A 0.63 0.62 -44.1 0 0 705.15 1113.41
  L 1051.24 527.68
  Q 1052.08 526.26 1050.43 526.27
  C 1035.20 526.38 1018.63 525.87 1002.74 526.41
  Q 991.25 526.81 982.76 526.83
  Q 885.15 527.11 784.99 527.00
  Q 777.71 526.99 765.00 527.19
  Q 748.73 527.44 731.53 527.20
  A 0.61 0.61 0.0 0 0 730.98 528.11
  Q 738.66 542.20 746.51 556.20
  Q 755.17 571.61 764.13 587.59
  Q 766.63 592.05 768.74 596.44
  Q 769.61 598.26 771.64 598.20
  Q 783.47 597.87 796.47 597.72
  C 798.69 597.70 800.71 597.15 802.95 597.11
  Q 815.57 596.89 828.79 596.67
  C 829.84 596.65 830.91 596.21 831.75 596.19
  Q 845.84 595.83 857.35 595.78
  Q 858.72 595.78 860.60 595.42
  Q 862.22 595.11 863.88 595.08
  Q 876.90 594.86 889.24 594.70
  C 890.95 594.67 892.61 594.13 894.39 594.10
  Q 906.46 593.88 917.60 593.73
  C 921.30 593.68 924.86 592.89 928.62 593.05
  Q 929.38 593.09 929.22 593.82
  Z"
/>
<path fill="#00b41f" d="
  M 928.62 593.05
  C 924.86 592.89 921.30 593.68 917.60 593.73
  Q 906.46 593.88 894.39 594.10
  C 892.61 594.13 890.95 594.67 889.24 594.70
  Q 876.90 594.86 863.88 595.08
  Q 862.22 595.11 860.60 595.42
  Q 858.72 595.78 857.35 595.78
  Q 845.84 595.83 831.75 596.19
  C 830.91 596.21 829.84 596.65 828.79 596.67
  Q 815.57 596.89 802.95 597.11
  C 800.71 597.15 798.69 597.70 796.47 597.72
  Q 783.47 597.87 771.64 598.20
  Q 769.61 598.26 768.74 596.44
  Q 766.63 592.05 764.13 587.59
  Q 755.17 571.61 746.51 556.20
  Q 738.66 542.20 730.98 528.11
  A 0.61 0.61 0.0 0 1 731.53 527.20
  Q 748.73 527.44 765.00 527.19
  Q 777.71 526.99 784.99 527.00
  Q 885.15 527.11 982.76 526.83
  Q 991.25 526.81 1002.74 526.41
  C 1018.63 525.87 1035.20 526.38 1050.43 526.27
  Q 1052.08 526.26 1051.24 527.68
  L 705.15 1113.41
  A 0.63 0.62 -44.1 0 1 704.07 1113.40
  L 297.43 375.60
  A 0.37 0.37 0.0 0 1 297.76 375.06
  C 303.46 375.16 309.03 374.29 314.69 374.17
  Q 321.51 374.02 328.31 373.90
  C 330.58 373.86 332.77 373.20 335.04 373.21
  Q 348.25 373.24 362.54 372.06
  C 364.16 371.92 365.07 372.44 365.88 373.84
  Q 369.88 380.71 373.98 387.70
  Q 538.03 667.19 707.57 956.64
  Q 709.24 959.49 710.68 962.55
  A 0.80 0.80 0.0 0 0 711.96 962.78
  Q 712.61 962.13 713.09 961.32
  Q 804.08 807.24 929.03 596.14
  Q 929.31 595.67 929.21 595.13
  Q 929.08 594.47 929.22 593.82
  Q 929.38 593.09 928.62 593.05
  Z"
/>
<path fill="#000000" d="
  M 591.45 447.26
  Q 594.27 452.97 597.85 459.51
  Q 655.40 564.58 713.52 671.29
  A 1.59 1.59 0.0 0 0 714.92 672.10
  C 722.77 672.02 730.02 671.98 738.12 671.27
  Q 743.73 670.79 749.81 670.93
  C 755.64 671.06 761.48 669.87 767.50 669.99
  Q 776.65 670.18 785.93 668.99
  Q 787.75 668.76 789.53 669.28
  Q 790.05 669.44 790.39 669.86
  Q 791.10 670.73 792.23 671.02
  A 1.04 1.03 -68.5 0 1 792.88 672.52
  Q 760.94 730.67 731.40 784.84
  Q 724.93 796.69 718.05 809.03
  C 717.34 810.31 715.95 811.97 714.37 810.71
  C 712.94 809.57 712.68 808.01 711.87 806.50
  Q 705.74 795.20 698.86 782.89
  Q 587.19 583.32 473.80 380.50
  C 473.19 379.41 472.75 377.83 471.87 377.09
  Q 469.38 375.00 472.65 375.00
  Q 521.66 374.94 571.01 374.33
  C 631.80 373.57 692.55 373.93 753.00 373.98
  C 794.13 374.01 835.55 373.05 877.24 373.05
  C 965.59 373.07 1049.27 373.13 1136.92 372.06
  Q 1137.44 372.05 1137.81 372.41
  L 1138.52 373.10
  Q 1138.98 373.54 1138.48 373.94
  Q 1137.58 374.65 1138.22 375.70
  A 1.35 1.34 -46.4 0 1 1138.25 377.04
  L 1101.47 445.49
  A 0.72 0.72 0.0 0 1 1100.85 445.87
  Q 1011.02 446.03 921.00 446.14
  C 871.19 446.21 825.85 447.05 796.50 447.00
  Q 687.44 446.79 592.74 447.57
  Q 592.22 447.58 591.82 447.26
  Q 591.71 447.17 591.59 447.11
  Q 591.30 446.98 591.45 447.26
  Z
  M 710.61 674.13
  Q 710.54 673.52 710.76 672.98
  A 1.41 1.39 -43.0 0 0 710.80 672.01
  Q 710.28 670.47 709.66 669.33
  Q 649.77 559.61 589.85 449.90
  Q 589.02 448.36 588.80 446.69
  Q 588.71 446.00 589.40 445.94
  C 590.83 445.80 591.50 445.00 593.10 445.00
  Q 651.60 444.95 711.74 444.73
  Q 715.42 444.72 719.01 444.66
  Q 791.88 443.60 863.51 444.00
  Q 873.66 444.06 883.52 444.00
  Q 927.20 443.73 972.49 443.78
  Q 976.41 443.78 981.00 443.70
  Q 1039.33 442.67 1098.46 443.09
  A 2.40 2.38 14.3 0 0 1100.58 441.84
  L 1136.03 375.92
  A 0.60 0.60 0.0 0 0 1135.51 375.03
  Q 1084.68 374.87 1035.25 375.10
  Q 1006.02 375.23 974.75 375.29
  Q 970.84 375.30 967.75 375.34
  Q 940.13 375.74 915.50 375.83
  Q 810.39 376.18 712.01 376.13
  C 707.68 376.13 703.35 376.41 699.00 376.46
  Q 673.11 376.79 648.25 376.86
  Q 565.50 377.10 475.65 377.12
  A 0.55 0.55 0.0 0 0 475.17 377.94
  Q 591.88 586.52 708.67 795.63
  Q 711.85 801.32 714.65 805.81
  Q 715.89 807.80 717.01 805.74
  L 789.80 672.78
  A 0.47 0.47 0.0 0 0 789.41 672.09
  Q 780.33 671.66 771.10 672.39
  Q 764.61 672.91 760.89 672.97
  C 756.12 673.05 751.06 672.81 746.34 673.48
  C 740.90 674.26 735.27 674.01 729.70 674.11
  C 723.71 674.22 717.67 675.42 711.40 674.89
  Q 710.70 674.83 710.61 674.13
  Z"
/>
<path fill="#0218ec" d="
  M 711.40 674.89
  C 717.67 675.42 723.71 674.22 729.70 674.11
  C 735.27 674.01 740.90 674.26 746.34 673.48
  C 751.06 672.81 756.12 673.05 760.89 672.97
  Q 764.61 672.91 771.10 672.39
  Q 780.33 671.66 789.41 672.09
  A 0.47 0.47 0.0 0 1 789.80 672.78
  L 717.01 805.74
  Q 715.89 807.80 714.65 805.81
  Q 711.85 801.32 708.67 795.63
  Q 591.88 586.52 475.17 377.94
  A 0.55 0.55 0.0 0 1 475.65 377.12
  Q 565.50 377.10 648.25 376.86
  Q 673.11 376.79 699.00 376.46
  C 703.35 376.41 707.68 376.13 712.01 376.13
  Q 810.39 376.18 915.50 375.83
  Q 940.13 375.74 967.75 375.34
  Q 970.84 375.30 974.75 375.29
  Q 1006.02 375.23 1035.25 375.10
  Q 1084.68 374.87 1135.51 375.03
  A 0.60 0.60 0.0 0 1 1136.03 375.92
  L 1100.58 441.84
  A 2.40 2.38 14.3 0 1 1098.46 443.09
  Q 1039.33 442.67 981.00 443.70
  Q 976.41 443.78 972.49 443.78
  Q 927.20 443.73 883.52 444.00
  Q 873.66 444.06 863.51 444.00
  Q 791.88 443.60 719.01 444.66
  Q 715.42 444.72 711.74 444.73
  Q 651.60 444.95 593.10 445.00
  C 591.50 445.00 590.83 445.80 589.40 445.94
  Q 588.71 446.00 588.80 446.69
  Q 589.02 448.36 589.85 449.90
  Q 649.77 559.61 709.66 669.33
  Q 710.28 670.47 710.80 672.01
  A 1.41 1.39 -43.0 0 1 710.76 672.98
  Q 710.54 673.52 710.61 674.13
  Q 710.70 674.83 711.40 674.89
  Z"
/>
</svg>
